<?xml version="1.0" encoding="UTF-8"?>
<svg version="1.1" xmlns="http://www.w3.org/2000/svg" width="106" height="106">
<path d="M0 0 C1.2365332 -0.01836914 1.2365332 -0.01836914 2.49804688 -0.03710938 C3.68817383 -0.04000977 3.68817383 -0.04000977 4.90234375 -0.04296875 C5.62800537 -0.04707764 6.35366699 -0.05118652 7.10131836 -0.05541992 C9.0625 0.1875 9.0625 0.1875 12.0625 2.1875 C12.0625 3.1775 12.0625 4.1675 12.0625 5.1875 C13.24585937 5.15269531 14.42921875 5.11789063 15.6484375 5.08203125 C35.40996233 4.67224931 35.40996233 4.67224931 42.875 10.3125 C47.21037476 12.86272045 51.07679011 12.76369061 56.0390625 12.9140625 C59.01187273 13.18292131 60.70762911 13.36330424 63.0625 15.1875 C63.8125 17.8125 63.8125 17.8125 64.0625 20.1875 C65.20847656 19.59839844 66.35445313 19.00929688 67.53515625 18.40234375 C69.06463966 17.64229371 70.59461397 16.88323096 72.125 16.125 C72.87716797 15.73505859 73.62933594 15.34511719 74.40429688 14.94335938 C79.48768927 12.45667824 82.54787814 11.70306993 88.0625 13.1875 C89.0625 14.1875 89.0625 14.1875 89.375 17 C88.97551837 21.07471265 88.15166422 21.54645528 85.0625 24.1875 C82.1904183 26.23169561 79.23485025 28.12530354 76.25 30 C74.99316406 30.79241089 74.99316406 30.79241089 73.7109375 31.60083008 C50.97529145 45.68338929 50.97529145 45.68338929 38.0625 44.1875 C28.79065495 41.57356644 20.39317471 36.91866878 12.0625 32.1875 C11.4025 33.5075 10.7425 34.8275 10.0625 36.1875 C6.77099875 36.27435287 3.4797904 36.32783895 0.1875 36.375 C-1.21822266 36.41270508 -1.21822266 36.41270508 -2.65234375 36.45117188 C-3.54824219 36.46083984 -4.44414063 36.47050781 -5.3671875 36.48046875 C-6.19460449 36.4961792 -7.02202148 36.51188965 -7.87451172 36.52807617 C-8.89569092 36.35949097 -8.89569092 36.35949097 -9.9375 36.1875 C-12.34000139 32.58374792 -12.18287331 30.9370723 -12.16796875 26.65625 C-12.16506836 24.72845703 -12.16506836 24.72845703 -12.16210938 22.76171875 C-12.15280396 21.75890869 -12.15280396 21.75890869 -12.14331055 20.73583984 C-12.12506579 18.69485983 -12.12280091 16.65433428 -12.12304688 14.61328125 C-12.07789066 4.60867199 -12.07789066 4.60867199 -10.9375 1.1875 C-7.53373106 -0.51438447 -3.75074101 0.00291886 0 0 Z " fill="#FECBB9" transform="translate(11.9375,54.8125)"/>
<path d="M0 0 C0.84119385 -0.00128906 1.6823877 -0.00257813 2.54907227 -0.00390625 C8.35916604 0.09465534 12.86085219 1.10940262 18.19140625 3.49609375 C22.14384584 4.85380201 25.89879617 4.52839112 30.0234375 4.22265625 C33.37409727 4.40987076 35.06222312 5.41264387 37.75 7.375 C40.41959057 10.90267325 41.48534551 13.96409178 41.75 18.375 C41.05605729 22.76997047 40.11510861 25.39500566 36.75 28.25 C32.36841039 31.35362597 29.09180046 32.09255529 23.75 31.375 C20.25615854 29.56089001 18.21057497 28.02615772 15.9375 24.8125 C12.31827479 20.77964905 7.8001705 19.81925219 2.55078125 19.0546875 C-3.79048429 18.71314717 -9.58856041 20.59996649 -15.25 23.375 C-16.26512245 24.35964533 -17.26921132 25.35615086 -18.25 26.375 C-20.3125 26.3125 -20.3125 26.3125 -22.25 25.375 C-23.37109375 23.31640625 -23.37109375 23.31640625 -24.25 21.375 C-14.2419439 12.94859855 -5.329816 11.26702879 7.75 12.375 C11.20703125 13.39453125 11.20703125 13.39453125 13.75 14.375 C14.41 13.055 15.07 11.735 15.75 10.375 C5.240344 6.0998857 -4.70366783 6.0849414 -15.37109375 10.01953125 C-20.07809204 12.23571633 -24.17354543 15.16434109 -28.25 18.375 C-29.9 16.725 -31.55 15.075 -33.25 13.375 C-23.68184996 4.43085974 -13.1334997 -0.02104517 0 0 Z " fill="#ED534F" transform="translate(64.25,6.625)"/>
<path d="M0 0 C1.2365332 -0.01836914 1.2365332 -0.01836914 2.49804688 -0.03710938 C3.68817383 -0.04000977 3.68817383 -0.04000977 4.90234375 -0.04296875 C5.62800537 -0.04707764 6.35366699 -0.05118652 7.10131836 -0.05541992 C9.0625 0.1875 9.0625 0.1875 12.0625 2.1875 C12.43481445 5.3203125 12.43481445 5.3203125 12.42578125 9.3125 C12.42627975 10.0152002 12.42677826 10.71790039 12.42729187 11.44189453 C12.42495061 12.92808865 12.41521888 14.41428667 12.39868164 15.90039062 C12.37509065 18.17874505 12.37811934 20.45592953 12.38476562 22.734375 C12.34157256 33.90842744 12.34157256 33.90842744 10.0625 36.1875 C6.7489424 36.63554715 3.40290137 36.51159862 0.0625 36.5 C-0.865625 36.51611328 -1.79375 36.53222656 -2.75 36.54882812 C-3.636875 36.54947266 -4.52375 36.55011719 -5.4375 36.55078125 C-6.65953125 36.55525269 -6.65953125 36.55525269 -7.90625 36.55981445 C-8.5765625 36.43695068 -9.246875 36.31408691 -9.9375 36.1875 C-12.34000139 32.58374792 -12.18287331 30.9370723 -12.16796875 26.65625 C-12.16506836 24.72845703 -12.16506836 24.72845703 -12.16210938 22.76171875 C-12.15280396 21.75890869 -12.15280396 21.75890869 -12.14331055 20.73583984 C-12.12506579 18.69485983 -12.12280091 16.65433428 -12.12304688 14.61328125 C-12.07789066 4.60867199 -12.07789066 4.60867199 -10.9375 1.1875 C-7.53373106 -0.51438447 -3.75074101 0.00291886 0 0 Z " fill="#7CD683" transform="translate(11.9375,54.8125)"/>
<path d="M0 0 C0.83249268 -0.00128906 1.66498535 -0.00257813 2.52270508 -0.00390625 C9.16482671 0.10968946 14.77409702 1.36690502 20.75 4.375 C20.75 5.365 20.75 6.355 20.75 7.375 C16.85748944 9.97000704 15.2369469 9.24090203 10.75 8.375 C10.14027344 8.20226562 9.53054687 8.02953125 8.90234375 7.8515625 C-1.55211991 5.53678107 -12.18844613 7.65522909 -21.22265625 13.19921875 C-23.62201454 14.86290881 -25.95669745 16.56877056 -28.25 18.375 C-29.9 16.725 -31.55 15.075 -33.25 13.375 C-23.68184655 4.43085656 -13.13354306 -0.02107056 0 0 Z " fill="#FCC72D" transform="translate(64.25,6.625)"/>
<path d="M0 0 C0 2.31 0 4.62 0 7 C-0.92619141 6.67515625 -0.92619141 6.67515625 -1.87109375 6.34375 C-12.22882934 2.93846707 -20.05284359 3.12426268 -30 8 C-31.01512245 8.98464533 -32.01921132 9.98115086 -33 11 C-35.0625 10.9375 -35.0625 10.9375 -37 10 C-38.12109375 7.94140625 -38.12109375 7.94140625 -39 6 C-28.28640373 -3.02043937 -12.99295397 -7.60563159 0 0 Z " fill="#FCC62D" transform="translate(79,22)"/>
<path d="M0 0 C1.8866883 1.53204764 2.62159401 3.04666044 3.55859375 5.265625 C2.56859375 6.255625 1.57859375 7.245625 0.55859375 8.265625 C-4.44140625 6.265625 -4.44140625 6.265625 -6.69140625 5.078125 C-10.73071366 3.88469327 -14.36712183 4.30786411 -18.44140625 5.265625 C-20.93948437 6.65081144 -20.93948437 6.65081144 -22.44140625 8.265625 C-25.60256401 6.89578997 -26.43411545 6.2765612 -28.44140625 3.265625 C-20.21999786 -3.98855887 -9.71151587 -5.08794595 0 0 Z " fill="#FDC72C" transform="translate(76.44140625,33.734375)"/>
<path d="M0 0 C2.5 2.0625 2.5 2.0625 4 5 C4.1875 8.625 4.1875 8.625 3 12 C-0.5670913 14.26373102 -2.62526583 15.30549648 -6.8125 14.375 C-9 13 -9 13 -11 10 C-11.45667063 6.4227467 -11.43777431 4.66541695 -9.4375 1.625 C-6.04129157 -0.63913895 -3.99900698 -0.64269755 0 0 Z " fill="#FDC72D" transform="translate(68,46)"/>
<path d="M0 0 C2.475 0.495 2.475 0.495 5 1 C5.33 1.99 5.66 2.98 6 4 C6.99 4.33 7.98 4.66 9 5 C7.671875 6.984375 7.671875 6.984375 5 9 C1.40931746 9.51556954 -2.13183171 9.37526282 -5.75 9.25 C-7.22533203 9.22292969 -7.22533203 9.22292969 -8.73046875 9.1953125 C-11.15463783 9.14824126 -13.57682059 9.08250742 -16 9 C-15.67 8.34 -15.34 7.68 -15 7 C-12.45058627 6.68758629 -9.99638487 6.48696579 -7.4375 6.375 C-6.72658203 6.33632812 -6.01566406 6.29765625 -5.28320312 6.2578125 C-3.52257575 6.16328217 -1.76132272 6.08054183 0 6 C0 4.02 0 2.04 0 0 Z " fill="#F5BEAF" transform="translate(67,71)"/>
<path d="M0 0 C0.86625 0.495 0.86625 0.495 1.75 1 C4.19883862 2.27075898 4.19883862 2.27075898 8 2 C10.20067421 1.06716704 10.20067421 1.06716704 12 0 C11.67 0.763125 11.34 1.52625 11 2.3125 C9.83179534 5.45205002 9.5960424 7.11634276 11 10.1875 C11.33 10.785625 11.66 11.38375 12 12 C11.4225 11.835 10.845 11.67 10.25 11.5 C6.60994097 10.69109799 3.52708708 10.99226083 0 12 C0.495 11.1028125 0.495 11.1028125 1 10.1875 C2.20787988 7.94613529 2.20787988 7.94613529 2 5 C1.34 4.34 0.68 3.68 0 3 C0 2.01 0 1.02 0 0 Z " fill="#E9D2E4" transform="translate(86,18)"/>
<path d="M0 0 C2.475 0.495 2.475 0.495 5 1 C5 2.32 5 3.64 5 5 C3.35 5.33 1.7 5.66 0 6 C0 4.02 0 2.04 0 0 Z " fill="#EFB8A9" transform="translate(67,71)"/>
</svg>
